<?xml version="1.0" encoding="UTF-8" standalone="no"?>
<!DOCTYPE svg PUBLIC "-//W3C//DTD SVG 1.0//EN" "http://www.w3.org/TR/2001/PR-SVG-20010719/DTD/svg10.dtd">
<svg width="47cm" height="26cm" viewBox="451 300 928 519" xmlns="http://www.w3.org/2000/svg" xmlns:xlink="http://www.w3.org/1999/xlink">
  <g>
    <rect style="fill: #ffffff" x="453" y="556" width="50" height="28"/>
    <rect style="fill: none; fill-opacity:0; stroke-width: 2; stroke: #000000" x="453" y="556" width="50" height="28"/>
    <rect style="fill: #ffffff" x="453" y="538" width="30" height="18"/>
    <rect style="fill: none; fill-opacity:0; stroke-width: 2; stroke: #000000" x="453" y="538" width="30" height="18"/>
    <text font-size="12.8" style="fill: #000000;text-anchor:start;font-family:monospace;font-style:normal;font-weight:normal" x="459" y="571.5">
      <tspan x="459" y="571.5">UI</tspan>
    </text>
  </g>
  <g>
    <rect style="fill: #ffffff" x="674" y="321" width="704" height="497"/>
    <rect style="fill: none; fill-opacity:0; stroke-width: 2; stroke: #000000" x="674" y="321" width="704" height="497"/>
    <rect style="fill: #ffffff" x="674" y="301" width="40" height="20"/>
    <rect style="fill: none; fill-opacity:0; stroke-width: 2; stroke: #000000" x="674" y="301" width="40" height="20"/>
    <text font-size="12.7998" style="fill: #000000;text-anchor:start;font-family:monospace;font-style:normal;font-weight:normal" x="676" y="316">Core</text>
  </g>
  <g>
    <polyline style="fill: none; fill-opacity:0; stroke-width: 2; stroke-dasharray: 8; stroke: #000000" points="503,570 583.997,570 583.997,569.5 666.289,569.5 "/>
    <polyline style="fill: none; fill-opacity:0; stroke-width: 2; stroke: #000000" points="653.642,574.5 669.642,569.5 653.642,564.5 "/>
  </g>
  <g>
    <rect style="fill: #ffffff" x="745" y="541" width="50.9" height="28"/>
    <rect style="fill: none; fill-opacity:0; stroke-width: 2; stroke: #000000" x="745" y="541" width="50.9" height="28"/>
    <text font-size="16" style="fill: #000000;text-anchor:middle;font-family:sans-serif;font-style:normal;font-weight:700" x="770.45" y="559">Level</text>
    <rect style="fill: #ffffff" x="745" y="569" width="50.9" height="8"/>
    <rect style="fill: none; fill-opacity:0; stroke-width: 2; stroke: #000000" x="745" y="569" width="50.9" height="8"/>
    <rect style="fill: #ffffff" x="745" y="577" width="50.9" height="8"/>
    <rect style="fill: none; fill-opacity:0; stroke-width: 2; stroke: #000000" x="745" y="577" width="50.9" height="8"/>
  </g>
  <g>
    <rect style="fill: #ffffff" x="718" y="717" width="104.2" height="28"/>
    <rect style="fill: none; fill-opacity:0; stroke-width: 2; stroke: #000000" x="718" y="717" width="104.2" height="28"/>
    <text font-size="16" style="fill: #000000;text-anchor:middle;font-family:sans-serif;font-style:normal;font-weight:700" x="770.1" y="735">LevelLoader</text>
    <rect style="fill: #ffffff" x="718" y="745" width="104.2" height="8"/>
    <rect style="fill: none; fill-opacity:0; stroke-width: 2; stroke: #000000" x="718" y="745" width="104.2" height="8"/>
    <rect style="fill: #ffffff" x="718" y="753" width="104.2" height="8"/>
    <rect style="fill: none; fill-opacity:0; stroke-width: 2; stroke: #000000" x="718" y="753" width="104.2" height="8"/>
  </g>
  <g>
    <polyline style="fill: none; fill-opacity:0; stroke-width: 2; stroke-dasharray: 8; stroke: #000000" points="770.1,715.994 770.1,654.497 770.45,654.497 770.45,591.705 "/>
    <polyline style="fill: none; fill-opacity:0; stroke-width: 2; stroke: #000000" points="775.45,604.353 770.45,588.353 765.45,604.353 "/>
    <text font-size="12.7998" style="fill: #000000;text-anchor:middle;font-family:monospace;font-style:normal;font-weight:normal" x="770.275" y="651.497">&lt;&lt;creates&gt;&gt;</text>
  </g>
  <g>
    <rect style="fill: #ffffff" x="917" y="542" width="55.0109" height="28"/>
    <rect style="fill: none; fill-opacity:0; stroke-width: 2; stroke: #000000" x="917" y="542" width="55.0109" height="28"/>
    <text font-size="16" style="fill: #000000;text-anchor:middle;font-family:sans-serif;font-style:normal;font-weight:700" x="944.505" y="560">World</text>
    <rect style="fill: #ffffff" x="917" y="570" width="55.0109" height="8"/>
    <rect style="fill: none; fill-opacity:0; stroke-width: 2; stroke: #000000" x="917" y="570" width="55.0109" height="8"/>
    <rect style="fill: #ffffff" x="917" y="578" width="55.0109" height="8"/>
    <rect style="fill: none; fill-opacity:0; stroke-width: 2; stroke: #000000" x="917" y="578" width="55.0109" height="8"/>
  </g>
  <g>
    <rect style="fill: #ffffff" x="892" y="746" width="105.15" height="28"/>
    <rect style="fill: none; fill-opacity:0; stroke-width: 2; stroke: #000000" x="892" y="746" width="105.15" height="28"/>
    <text font-size="16" style="fill: #000000;text-anchor:middle;font-family:sans-serif;font-style:normal;font-weight:700" x="944.575" y="764">PointIterator</text>
    <rect style="fill: #ffffff" x="892" y="774" width="105.15" height="8"/>
    <rect style="fill: none; fill-opacity:0; stroke-width: 2; stroke: #000000" x="892" y="774" width="105.15" height="8"/>
    <rect style="fill: #ffffff" x="892" y="782" width="105.15" height="8"/>
    <rect style="fill: none; fill-opacity:0; stroke-width: 2; stroke: #000000" x="892" y="782" width="105.15" height="8"/>
  </g>
  <g>
    <polyline style="fill: none; fill-opacity:0; stroke-width: 2; stroke-dasharray: 8; stroke: #000000" points="944.505,586.881 944.506,706 944.575,706 944.575,738.408 "/>
    <polyline style="fill: none; fill-opacity:0; stroke-width: 2; stroke: #000000" points="939.575,725.761 944.575,741.761 949.575,725.761 "/>
    <text font-size="12.7998" style="fill: #000000;text-anchor:middle;font-family:monospace;font-style:normal;font-weight:normal" x="944.54" y="703">&lt;&lt;creates&gt;&gt;</text>
  </g>
  <g>
    <rect style="fill: #ffffff" x="1244" y="745" width="49.95" height="28"/>
    <rect style="fill: none; fill-opacity:0; stroke-width: 2; stroke: #000000" x="1244" y="745" width="49.95" height="28"/>
    <text font-size="16" style="fill: #000000;text-anchor:middle;font-family:sans-serif;font-style:normal;font-weight:700" x="1268.98" y="763">Point</text>
    <rect style="fill: #ffffff" x="1244" y="773" width="49.95" height="8"/>
    <rect style="fill: none; fill-opacity:0; stroke-width: 2; stroke: #000000" x="1244" y="773" width="49.95" height="8"/>
    <rect style="fill: #ffffff" x="1244" y="781" width="49.95" height="8"/>
    <rect style="fill: none; fill-opacity:0; stroke-width: 2; stroke: #000000" x="1244" y="781" width="49.95" height="8"/>
  </g>
  <g>
    <polyline style="fill: none; fill-opacity:0; stroke-width: 2; stroke-dasharray: 8; stroke: #000000" points="998.157,768 1116.58,768 1116.58,767 1236.29,767 "/>
    <polyline style="fill: none; fill-opacity:0; stroke-width: 2; stroke: #000000" points="1223.64,772 1239.64,767 1223.64,762 "/>
    <text font-size="12.7998" style="fill: #000000;text-anchor:start;font-family:monospace;font-style:normal;font-weight:normal" x="1118.58" y="764.5">&lt;&lt;create&gt;&gt;</text>
  </g>
  <g>
    <polyline style="fill: none; fill-opacity:0; stroke-width: 2; stroke: #000000" points="822.061,563 825.45,563 825.45,564 916.006,564 "/>
    <polygon style="fill: #000000" points="796.889,563 810.889,558.2 824.889,563 810.889,567.8 "/>
    <polygon style="fill: none; fill-opacity:0; stroke-width: 2; stroke: #000000" points="796.889,563 810.889,558.2 824.889,563 810.889,567.8 "/>
    <text font-size="12.7998" style="fill: #000000;text-anchor:start;font-family:monospace;font-style:normal;font-weight:normal" x="827.45" y="560.5">contains</text>
    <polygon style="fill: #000000" points="885.85,560.5 885.85,552.5 893.85,556.5 "/>
    <text font-size="12.7998" style="fill: #000000;text-anchor:start;font-family:monospace;font-style:normal;font-weight:normal" x="828.889" y="560"/>
    <text font-size="12.7998" style="fill: #000000;text-anchor:end;font-family:monospace;font-style:normal;font-weight:normal" x="912.006" y="561">1</text>
  </g>
  <g>
    <polyline style="fill: none; fill-opacity:0; stroke-width: 2; stroke-dasharray: 8; stroke: #000000" points="944.505,587.004 944.506,682 1268.97,682 1268.97,737.291 "/>
    <polyline style="fill: none; fill-opacity:0; stroke-width: 2; stroke: #000000" points="1263.97,724.644 1268.97,740.644 1273.97,724.644 "/>
    <text font-size="12.7998" style="fill: #000000;text-anchor:middle;font-family:monospace;font-style:normal;font-weight:normal" x="1106.74" y="679">&lt;&lt;uses&gt;&gt;</text>
  </g>
  <g>
    <rect style="fill: #ffffff" x="1126" y="542" width="104.811" height="28"/>
    <rect style="fill: none; fill-opacity:0; stroke-width: 2; stroke: #000000" x="1126" y="542" width="104.811" height="28"/>
    <text font-size="16" style="fill: #000000;text-anchor:middle;font-family:sans-serif;font-style:italic;font-weight:700" x="1178.41" y="560">WorldObject</text>
    <rect style="fill: #ffffff" x="1126" y="570" width="104.811" height="8"/>
    <rect style="fill: none; fill-opacity:0; stroke-width: 2; stroke: #000000" x="1126" y="570" width="104.811" height="8"/>
    <rect style="fill: #ffffff" x="1126" y="578" width="104.811" height="8"/>
    <rect style="fill: none; fill-opacity:0; stroke-width: 2; stroke: #000000" x="1126" y="578" width="104.811" height="8"/>
  </g>
  <g>
    <polyline style="fill: none; fill-opacity:0; stroke-width: 2; stroke: #000000" points="973.018,564 974.018,564 1123.99,564 1124.99,564 "/>
    <text font-size="12.7998" style="fill: #000000;text-anchor:middle;font-family:monospace;font-style:normal;font-weight:normal" x="1049.01" y="561">contains</text>
    <polygon style="fill: #000000" points="1079.21,561 1079.21,553 1087.21,557 "/>
    <text font-size="12.7998" style="fill: #000000;text-anchor:start;font-family:monospace;font-style:normal;font-weight:normal" x="977.018" y="561">1</text>
    <text font-size="12.7998" style="fill: #000000;text-anchor:end;font-family:monospace;font-style:normal;font-weight:normal" x="1120.99" y="561">1..*</text>
  </g>
  <g>
    <rect style="fill: #ffffff" x="1028" y="382" width="49.95" height="28"/>
    <rect style="fill: none; fill-opacity:0; stroke-width: 2; stroke: #000000" x="1028" y="382" width="49.95" height="28"/>
    <text font-size="16" style="fill: #000000;text-anchor:middle;font-family:sans-serif;font-style:normal;font-weight:700" x="1052.97" y="400">Floor</text>
    <rect style="fill: #ffffff" x="1028" y="410" width="49.95" height="8"/>
    <rect style="fill: none; fill-opacity:0; stroke-width: 2; stroke: #000000" x="1028" y="410" width="49.95" height="8"/>
    <rect style="fill: #ffffff" x="1028" y="418" width="49.95" height="8"/>
    <rect style="fill: none; fill-opacity:0; stroke-width: 2; stroke: #000000" x="1028" y="418" width="49.95" height="8"/>
  </g>
  <g>
    <rect style="fill: #ffffff" x="1086" y="382" width="42.3063" height="28"/>
    <rect style="fill: none; fill-opacity:0; stroke-width: 2; stroke: #000000" x="1086" y="382" width="42.3063" height="28"/>
    <text font-size="16" style="fill: #000000;text-anchor:middle;font-family:sans-serif;font-style:normal;font-weight:700" x="1107.15" y="400">Wall</text>
    <rect style="fill: #ffffff" x="1086" y="410" width="42.3063" height="8"/>
    <rect style="fill: none; fill-opacity:0; stroke-width: 2; stroke: #000000" x="1086" y="410" width="42.3063" height="8"/>
    <rect style="fill: #ffffff" x="1086" y="418" width="42.3063" height="8"/>
    <rect style="fill: none; fill-opacity:0; stroke-width: 2; stroke: #000000" x="1086" y="418" width="42.3063" height="8"/>
  </g>
  <g>
    <rect style="fill: #ffffff" x="1136" y="382" width="40.2" height="28"/>
    <rect style="fill: none; fill-opacity:0; stroke-width: 2; stroke: #000000" x="1136" y="382" width="40.2" height="28"/>
    <text font-size="16" style="fill: #000000;text-anchor:middle;font-family:sans-serif;font-style:normal;font-weight:700" x="1156.1" y="400">Box</text>
    <rect style="fill: #ffffff" x="1136" y="410" width="40.2" height="8"/>
    <rect style="fill: none; fill-opacity:0; stroke-width: 2; stroke: #000000" x="1136" y="410" width="40.2" height="8"/>
    <rect style="fill: #ffffff" x="1136" y="418" width="40.2" height="8"/>
    <rect style="fill: none; fill-opacity:0; stroke-width: 2; stroke: #000000" x="1136" y="418" width="40.2" height="8"/>
  </g>
  <g>
    <rect style="fill: #ffffff" x="1185" y="382" width="87.9125" height="28"/>
    <rect style="fill: none; fill-opacity:0; stroke-width: 2; stroke: #000000" x="1185" y="382" width="87.9125" height="28"/>
    <text font-size="16" style="fill: #000000;text-anchor:middle;font-family:sans-serif;font-style:normal;font-weight:700" x="1228.96" y="400">BoxTarget</text>
    <rect style="fill: #ffffff" x="1185" y="410" width="87.9125" height="8"/>
    <rect style="fill: none; fill-opacity:0; stroke-width: 2; stroke: #000000" x="1185" y="410" width="87.9125" height="8"/>
    <rect style="fill: #ffffff" x="1185" y="418" width="87.9125" height="8"/>
    <rect style="fill: none; fill-opacity:0; stroke-width: 2; stroke: #000000" x="1185" y="418" width="87.9125" height="8"/>
  </g>
  <g>
    <rect style="fill: #ffffff" x="962" y="383" width="58.05" height="28"/>
    <rect style="fill: none; fill-opacity:0; stroke-width: 2; stroke: #000000" x="962" y="383" width="58.05" height="28"/>
    <text font-size="16" style="fill: #000000;text-anchor:middle;font-family:sans-serif;font-style:normal;font-weight:700" x="991.025" y="401">Player</text>
    <rect style="fill: #ffffff" x="962" y="411" width="58.05" height="8"/>
    <rect style="fill: none; fill-opacity:0; stroke-width: 2; stroke: #000000" x="962" y="411" width="58.05" height="8"/>
    <rect style="fill: #ffffff" x="962" y="419" width="58.05" height="8"/>
    <rect style="fill: none; fill-opacity:0; stroke-width: 2; stroke: #000000" x="962" y="419" width="58.05" height="8"/>
  </g>
  <g>
    <polyline style="fill: none; fill-opacity:0; stroke-width: 2; stroke: #000000" points="1178.41,522.758 1178.41,475.997 991.025,475.997 991.025,427 "/>
    <polygon style="fill: #ffffff" points="1170.41,522.758 1178.41,538.758 1186.41,522.758 "/>
    <polygon style="fill: none; fill-opacity:0; stroke-width: 2; stroke: #000000" points="1170.41,522.758 1178.41,538.758 1186.41,522.758 "/>
  </g>
  <g>
    <polyline style="fill: none; fill-opacity:0; stroke-width: 2; stroke: #000000" points="1178.41,522.758 1178.41,475.497 1052.97,475.497 1052.97,426 "/>
    <polygon style="fill: #ffffff" points="1170.41,522.758 1178.41,538.758 1186.41,522.758 "/>
    <polygon style="fill: none; fill-opacity:0; stroke-width: 2; stroke: #000000" points="1170.41,522.758 1178.41,538.758 1186.41,522.758 "/>
  </g>
  <g>
    <polyline style="fill: none; fill-opacity:0; stroke-width: 2; stroke: #000000" points="1178.41,522.758 1178.41,475.497 1107.15,475.497 1107.15,426 "/>
    <polygon style="fill: #ffffff" points="1170.41,522.758 1178.41,538.758 1186.41,522.758 "/>
    <polygon style="fill: none; fill-opacity:0; stroke-width: 2; stroke: #000000" points="1170.41,522.758 1178.41,538.758 1186.41,522.758 "/>
  </g>
  <g>
    <polyline style="fill: none; fill-opacity:0; stroke-width: 2; stroke: #000000" points="1178.41,522.758 1178.41,475.497 1156.1,475.497 1156.1,426 "/>
    <polygon style="fill: #ffffff" points="1170.41,522.758 1178.41,538.758 1186.41,522.758 "/>
    <polygon style="fill: none; fill-opacity:0; stroke-width: 2; stroke: #000000" points="1170.41,522.758 1178.41,538.758 1186.41,522.758 "/>
  </g>
  <g>
    <polyline style="fill: none; fill-opacity:0; stroke-width: 2; stroke: #000000" points="1178.41,522.758 1178.41,475.497 1228.96,475.497 1228.96,426 "/>
    <polygon style="fill: #ffffff" points="1170.41,522.758 1178.41,538.758 1186.41,522.758 "/>
    <polygon style="fill: none; fill-opacity:0; stroke-width: 2; stroke: #000000" points="1170.41,522.758 1178.41,538.758 1186.41,522.758 "/>
  </g>
</svg>
